<svg xmlns="http://www.w3.org/2000/svg" xmlns:xlink="http://www.w3.org/1999/xlink" viewBox="0,0,256,256" width="48px" height="48px" fill-rule="nonzero"><g fill="#1a5dc1" fill-rule="nonzero" stroke="none" stroke-width="1" stroke-linecap="butt" stroke-linejoin="miter" stroke-miterlimit="10" stroke-dasharray="" stroke-dashoffset="0" font-family="none" font-weight="none" font-size="none" text-anchor="none" style="mix-blend-mode: normal"><g transform="scale(10.66667,10.66667)"><path d="M19,2l-9.40039,8h3l-5,5h3l-5.59961,7l10.40039,-9h-3l5,-5h-3zM12.26563,3.25195c-0.83416,-0.0249 -1.68532,0.07004 -2.53125,0.29688c-4.65632,1.24707 -7.43364,6.05965 -6.18555,10.7168c0.36038,1.34652 1.0199,2.53889 1.88672,3.51953c0.17316,0.21522 0.45059,0.31785 0.72212,0.26714c0.27153,-0.05071 0.49322,-0.24657 0.57702,-0.50978c0.0838,-0.26321 0.01614,-0.55118 -0.17609,-0.74954c-0.71719,-0.81136 -1.26093,-1.79653 -1.56055,-2.91602c-1.03791,-3.87285 1.25332,-7.84198 5.125,-8.87891c0.93809,-0.25155 1.87807,-0.30752 2.7832,-0.19336c0.26755,0.03691 0.53428,-0.07286 0.69835,-0.2874c0.16406,-0.21454 0.20012,-0.50072 0.09439,-0.74925c-0.10572,-0.24853 -0.3369,-0.42103 -0.60524,-0.45163c-0.27322,-0.03446 -0.55007,-0.05615 -0.82812,-0.06445zM18.24609,6.24219c-0.29102,-0.00183 -0.55684,0.16485 -0.68194,0.42762c-0.12511,0.26277 -0.08692,0.57418 0.09796,0.79894c0.6093,0.75868 1.07203,1.65296 1.33984,2.6543c1.03791,3.87285 -1.25332,7.84198 -5.125,8.87891c-0.81986,0.21972 -1.6426,0.28905 -2.44141,0.22656c-0.26727,-0.02096 -0.52541,0.10226 -0.67719,0.32325c-0.15177,0.22099 -0.17411,0.50617 -0.0586,0.74809c0.11551,0.24193 0.35132,0.40384 0.6186,0.42475c0.9652,0.07551 1.96113,-0.0092 2.94727,-0.27344c4.65632,-1.24707 7.43364,-6.05965 6.18555,-10.7168c-0.32219,-1.20466 -0.88439,-2.28581 -1.62109,-3.20312c-0.14046,-0.18029 -0.35545,-0.28671 -0.58398,-0.28906z"></path></g></g></svg>